<svg width="64" height="64" viewBox="0 0 64 64" fill="none" xmlns="http://www.w3.org/2000/svg">
<path d="M52 8H12C9.87898 8.00232 7.84549 8.84591 6.3457 10.3457C4.84591 11.8455 4.00232 13.879 4 16V48C4.00232 50.121 4.84591 52.1545 6.3457 53.6543C7.84549 55.1541 9.87898 55.9977 12 56H52C54.121 55.9977 56.1545 55.1541 57.6543 53.6543C59.1541 52.1545 59.9977 50.121 60 48V16C59.9977 13.879 59.1541 11.8455 57.6543 10.3457C56.1545 8.84591 54.121 8.00232 52 8ZM42 16C43.1867 16 44.3467 16.3519 45.3334 17.0112C46.3201 17.6705 47.0892 18.6075 47.5433 19.7039C47.9974 20.8003 48.1162 22.0067 47.8847 23.1705C47.6532 24.3344 47.0818 25.4035 46.2426 26.2426C45.4035 27.0818 44.3344 27.6532 43.1705 27.8847C42.0067 28.1162 40.8003 27.9974 39.7039 27.5433C38.6075 27.0892 37.6705 26.3201 37.0112 25.3334C36.3519 24.3467 36 23.1867 36 22C36.0017 20.4092 36.6343 18.884 37.7592 17.7592C38.884 16.6343 40.4092 16.0017 42 16ZM12 52C10.9391 52 9.92172 51.5786 9.17157 50.8284C8.42143 50.0783 8 49.0609 8 48V39.5462L19.855 29.0088C20.9988 27.9943 22.4863 27.4541 24.0145 27.4983C25.5427 27.5424 26.9966 28.1675 28.08 29.2463L36.1987 37.3475L21.5462 52H12ZM56 48C56 49.0609 55.5786 50.0783 54.8284 50.8284C54.0783 51.5786 53.0609 52 52 52H27.2038L42.3812 36.8225C43.4558 35.9087 44.8195 35.4052 46.2301 35.4016C47.6407 35.3979 49.0069 35.8943 50.0863 36.8025L56 41.73V48Z" fill="#E6E6E6"/>
</svg>
