<svg width="40" height="40" viewBox="0 0 40 40" fill="none" xmlns="http://www.w3.org/2000/svg">
<g id="octicon:bookmark-24">
<path id="Vector" d="M8.33325 6.24967C8.33325 4.63967 9.63992 3.33301 11.2499 3.33301H28.7499C30.3599 3.33301 31.6666 4.63967 31.6666 6.24967V35.4163C31.6666 35.6517 31.6001 35.8823 31.4748 36.0815C31.3496 36.2808 31.1706 36.4406 30.9585 36.5426C30.7464 36.6447 30.5099 36.6848 30.276 36.6583C30.0421 36.6318 29.8205 36.5399 29.6366 36.393L19.9999 28.683L10.3649 36.3913C10.1811 36.5386 9.95949 36.631 9.72552 36.6578C9.49154 36.6846 9.25475 36.6447 9.04243 36.5428C8.8301 36.4409 8.65089 36.2811 8.52542 36.0818C8.39995 35.8825 8.33334 35.6518 8.33325 35.4163V6.24967ZM11.2499 5.83301C11.1394 5.83301 11.0334 5.87691 10.9553 5.95505C10.8772 6.03319 10.8333 6.13917 10.8333 6.24967V32.8163L19.2183 26.1063C19.4399 25.9283 19.7156 25.8313 19.9999 25.8313C20.2842 25.8313 20.5599 25.9283 20.7816 26.1063L29.1666 32.8163V6.24967C29.1666 6.13917 29.1227 6.03319 29.0445 5.95505C28.9664 5.87691 28.8604 5.83301 28.7499 5.83301H11.2499Z" fill="#5C90D6"/>
</g>
</svg>
