<svg width="18" height="18" viewBox="0 0 18 18" fill="none" xmlns="http://www.w3.org/2000/svg">
<path fill-rule="evenodd" clip-rule="evenodd" d="M6 1.5C5.40326 1.5 4.83097 1.73705 4.40901 2.15901C3.98705 2.58097 3.75 3.15326 3.75 3.75V15.75C3.75007 15.8778 3.78279 16.0035 3.84506 16.115C3.90733 16.2266 3.99708 16.3205 4.1058 16.3876C4.21451 16.4548 4.33859 16.4931 4.46625 16.4988C4.59392 16.5046 4.72093 16.4776 4.83525 16.4205L9 14.3385L13.1647 16.4205C13.2791 16.4776 13.4061 16.5046 13.5337 16.4988C13.6614 16.4931 13.7855 16.4548 13.8942 16.3876C14.0029 16.3205 14.0927 16.2266 14.1549 16.115C14.2172 16.0035 14.2499 15.8778 14.25 15.75V3.75C14.25 3.15326 14.0129 2.58097 13.591 2.15901C13.169 1.73705 12.5967 1.5 12 1.5H6Z" fill="#006BFA"/>
</svg>
