<svg width="20" height="20" viewBox="0 0 20 20" fill="none" xmlns="http://www.w3.org/2000/svg">
<g clip-path="url(#clip0_1690_3924)">
<path d="M9.57317 0C4.28452 0.006 0 4.4812 0 10C0.00269893 11.5664 0.358008 13.1103 1.03729 14.5071C1.71658 15.904 2.70084 17.1148 3.91077 18.042C3.85997 17.6358 3.86994 17.2164 3.93319 16.8016C3.30084 16.2288 2.75137 15.5634 2.30192 14.8262H4.68721C4.91376 14.4572 5.14721 14.0922 5.5545 13.8262C5.31587 12.8062 5.17002 11.683 5.14318 10.5H5.40117C5.4777 10.1498 5.60229 9.81301 5.77108 9.5H5.14951C5.19014 8.313 5.34942 7.1892 5.60242 6.174H9.10417V7.9516C9.44306 8.00568 9.76859 8.12823 10.0625 8.3124V6.174H13.7415C13.7914 6.3734 13.8364 6.578 13.8786 6.7854C14.2011 6.73386 14.5286 6.72599 14.853 6.762C14.8159 6.56518 14.7751 6.36914 14.7305 6.174H17.3928C17.7914 7.05957 18.0481 8.00734 18.1527 8.9796C18.2639 9.9894 18.266 11.1746 17.9139 12.3338C17.7997 12.7767 17.6532 13.2098 17.4758 13.6294C17.692 13.8668 17.9538 14.0912 18.217 14.3202C18.8392 12.9724 19.1638 11.4961 19.1667 10C19.1667 4.4772 14.876 0 9.58333 0H9.57317ZM10.0625 1.1364C11.0722 1.3156 12.037 2.1836 12.7972 3.6238C13.0421 4.088 13.261 4.6092 13.4504 5.1738H10.0625V1.1364ZM9.10417 1.1758V5.1738H5.89375C6.08312 4.6092 6.302 4.088 6.54695 3.6238C7.26225 2.2682 8.15944 1.4202 9.10417 1.1758ZM6.89617 1.4464C6.45073 1.9168 6.05092 2.4904 5.70726 3.1414C5.38526 3.7514 5.1083 4.4348 4.88079 5.1738H2.30192C3.36279 3.4326 4.98046 2.0998 6.89617 1.4464ZM12.5331 1.539C14.3344 2.2216 15.8527 3.5126 16.8647 5.1738H14.4622C14.2353 4.4348 13.9587 3.7514 13.6367 3.1414C13.3155 2.5324 12.944 1.9916 12.5331 1.539ZM1.77426 6.174H4.61246C4.37383 7.2064 4.22759 8.326 4.19022 9.5002H0.972133C1.03166 8.34799 1.30396 7.21863 1.77407 6.1742M0.972133 10.5H4.18485C4.20957 11.6712 4.34202 12.7908 4.56703 13.826H1.77407C1.30396 12.7816 1.03166 11.6522 0.972133 10.5Z" fill="#fff"/>
<path d="M13.0556 13.5072C12.5405 13.5072 12.0371 13.3544 11.6088 13.0683C11.1805 12.7821 10.8468 12.3754 10.6497 11.8996C10.4526 11.4237 10.401 10.9001 10.5015 10.3949C10.6019 9.88979 10.85 9.42577 11.2142 9.06157C11.5784 8.69737 12.0424 8.44935 12.5475 8.34887C13.0527 8.24839 13.5763 8.29996 14.0522 8.49706C14.528 8.69416 14.9347 9.02795 15.2209 9.4562C15.507 9.88445 15.6598 10.3879 15.6598 10.903C15.6598 11.5937 15.3854 12.256 14.897 12.7444C14.4086 13.2328 13.7463 13.5072 13.0556 13.5072ZM13.0556 9.3405C12.7466 9.3405 12.4445 9.43213 12.1875 9.60382C11.9306 9.77551 11.7303 10.0195 11.612 10.3051C11.4938 10.5906 11.4628 10.9047 11.5231 11.2078C11.5834 11.5109 11.7322 11.7893 11.9507 12.0078C12.1693 12.2264 12.4477 12.3752 12.7508 12.4355C13.0539 12.4958 13.368 12.4648 13.6535 12.3466C13.939 12.2283 14.1831 12.028 14.3548 11.7711C14.5265 11.5141 14.6181 11.212 14.6181 10.903C14.6181 10.4886 14.4535 10.0912 14.1604 9.79814C13.8674 9.50512 13.47 9.3405 13.0556 9.3405ZM17.9167 18.3683C17.7791 18.3665 17.6477 18.311 17.5504 18.2137C17.4531 18.1164 17.3977 17.985 17.3959 17.8474C17.3959 16.4933 16.6598 15.5905 13.0556 15.5905C9.45143 15.5905 8.71532 16.4933 8.71532 17.8474C8.71532 17.9856 8.66044 18.118 8.56277 18.2157C8.46509 18.3134 8.33262 18.3683 8.19448 18.3683C8.05635 18.3683 7.92388 18.3134 7.8262 18.2157C7.72852 18.118 7.67365 17.9856 7.67365 17.8474C7.67365 14.5488 11.4445 14.5488 13.0556 14.5488C14.6667 14.5488 18.4375 14.5488 18.4375 17.8474C18.4357 17.985 18.3803 18.1164 18.283 18.2137C18.1857 18.311 18.0543 18.3665 17.9167 18.3683ZM9.11115 14.0697H8.88893C8.3364 14.0163 7.82771 13.7455 7.47478 13.3171C7.12184 12.8886 6.95357 12.3375 7.00698 11.7849C7.0604 11.2324 7.33111 10.7237 7.75958 10.3708C8.18805 10.0179 8.73917 9.84958 9.29171 9.903C9.36255 9.90604 9.43203 9.92352 9.49589 9.95437C9.55974 9.98521 9.61662 10.0288 9.66305 10.0824C9.70947 10.136 9.74446 10.1985 9.76587 10.2661C9.78728 10.3337 9.79466 10.405 9.78756 10.4755C9.78045 10.5461 9.75902 10.6144 9.72456 10.6764C9.69011 10.7384 9.64336 10.7927 9.58718 10.836C9.531 10.8792 9.46658 10.9106 9.39786 10.9281C9.32914 10.9456 9.25757 10.9489 9.18754 10.9377C9.05198 10.9242 8.91508 10.9381 8.78503 10.9787C8.65498 11.0193 8.53443 11.0856 8.4306 11.1738C8.32513 11.2589 8.23765 11.3641 8.17327 11.4833C8.10889 11.6026 8.06889 11.7334 8.0556 11.8683C8.04124 12.0048 8.05419 12.1428 8.09371 12.2743C8.13323 12.4058 8.19851 12.5281 8.28577 12.6341C8.37302 12.7401 8.4805 12.8277 8.60194 12.8917C8.72337 12.9558 8.85634 12.995 8.9931 13.0072C9.21916 13.0265 9.44549 12.973 9.63893 12.8544C9.7568 12.7816 9.89875 12.7587 10.0335 12.7906C10.1683 12.8225 10.2849 12.9066 10.3577 13.0245C10.4304 13.1424 10.4534 13.2843 10.4215 13.4191C10.3896 13.5539 10.3054 13.6705 10.1875 13.7433C9.86546 13.9487 9.49309 14.0616 9.11115 14.0697ZM5.41671 17.8474C5.27913 17.8456 5.1477 17.7902 5.05041 17.6929C4.95312 17.5956 4.89767 17.4642 4.89587 17.3266C4.89587 15.4516 5.39587 14.2016 7.84726 14.2016C7.9854 14.2016 8.11787 14.2565 8.21555 14.3542C8.31322 14.4518 8.3681 14.5843 8.3681 14.7224C8.3681 14.8606 8.31322 14.993 8.21555 15.0907C8.11787 15.1884 7.9854 15.2433 7.84726 15.2433C6.21532 15.2433 5.93754 15.7641 5.93754 17.3266C5.93574 17.4642 5.88029 17.5956 5.783 17.6929C5.68572 17.7902 5.55428 17.8456 5.41671 17.8474Z" fill="#fff"/>
</g>
<defs>
<clipPath id="clip0_1690_3924">
<rect width="19.1667" height="20" fill="#fff"/>
</clipPath>
</defs>
</svg>
