<svg width="24" height="24" viewBox="0 0 24 24" fill="none" xmlns="http://www.w3.org/2000/svg">
<g clip-path="url(#clip0_2283_993)">
<path d="M11.9873 0C5.36496 0.0072 0 5.37744 0 12C0.00337953 13.8797 0.448288 15.7323 1.29887 17.4086C2.14946 19.0848 3.38193 20.5378 4.89696 21.6504C4.83336 21.163 4.84584 20.6597 4.92504 20.1619C4.13322 19.4746 3.44519 18.6761 2.8824 17.7914H5.8692C6.15288 17.3486 6.4452 16.9106 6.9552 16.5914C6.6564 15.3674 6.47376 14.0196 6.44016 12.6H6.7632C6.85903 12.1798 7.01504 11.7756 7.2264 11.4H6.44808C6.49896 9.9756 6.6984 8.62704 7.0152 7.4088H11.4V9.54192C11.8244 9.60681 12.232 9.75388 12.6 9.97488V7.4088H17.2068C17.2692 7.64808 17.3256 7.8936 17.3784 8.14248C17.7822 8.08063 18.1923 8.07119 18.5986 8.1144C18.5521 7.87822 18.5009 7.64297 18.4452 7.4088H21.7788C22.2779 8.47148 22.5994 9.60881 22.7304 10.7755C22.8696 11.9873 22.8722 13.4095 22.4314 14.8006C22.2884 15.332 22.1049 15.8518 21.8827 16.3553C22.1534 16.6402 22.4813 16.9094 22.8108 17.1842C23.59 15.5669 23.9964 13.7953 24 12C24 5.37264 18.6274 0 12 0H11.9873ZM12.6 1.36368C13.8643 1.57872 15.0725 2.62032 16.0243 4.34856C16.331 4.9056 16.6051 5.53104 16.8422 6.20856H12.6V1.36368ZM11.4 1.41096V6.20856H7.38C7.61712 5.53104 7.8912 4.9056 8.19792 4.34856C9.0936 2.72184 10.217 1.70424 11.4 1.41096ZM8.6352 1.73568C8.07744 2.30016 7.5768 2.98848 7.14648 3.76968C6.74328 4.50168 6.39648 5.32176 6.1116 6.20856H2.8824C4.2108 4.11912 6.2364 2.51976 8.6352 1.73568ZM15.6936 1.8468C17.9491 2.66592 19.8504 4.21512 21.1176 6.20856H18.1092C17.825 5.32176 17.4787 4.50168 17.0755 3.76968C16.6733 3.03888 16.2082 2.38992 15.6936 1.8468ZM2.22168 7.4088H5.7756C5.4768 8.64768 5.29368 9.9912 5.24688 11.4002H1.21728C1.29182 10.0176 1.63279 8.66235 2.22144 7.40904M1.21728 12.6H5.24016C5.27112 14.0054 5.43696 15.349 5.71872 16.5912H2.22144C1.63279 15.3379 1.29182 13.9827 1.21728 12.6Z" fill="black"/>
<path d="M16.3478 16.208C15.7028 16.208 15.0724 16.0247 14.5361 15.6814C13.9999 15.338 13.5819 14.8499 13.3351 14.2789C13.0883 13.7079 13.0237 13.0795 13.1495 12.4734C13.2754 11.8672 13.5859 11.3103 14.042 10.8733C14.498 10.4363 15.0791 10.1386 15.7116 10.0181C16.3441 9.89748 16.9998 9.95936 17.5956 10.1959C18.1915 10.4324 18.7008 10.8329 19.0591 11.3469C19.4174 11.8608 19.6086 12.4649 19.6086 13.083C19.6086 13.9118 19.2651 14.7067 18.6535 15.2927C18.042 15.8788 17.2126 16.208 16.3478 16.208ZM16.3478 11.208C15.9608 11.208 15.5825 11.318 15.2608 11.524C14.939 11.73 14.6883 12.0229 14.5402 12.3655C14.3921 12.7081 14.3533 13.0851 14.4288 13.4488C14.5043 13.8125 14.6907 14.1466 14.9643 14.4088C15.2379 14.6711 15.5865 14.8496 15.9661 14.922C16.3456 14.9943 16.739 14.9572 17.0965 14.8153C17.454 14.6734 17.7596 14.433 17.9745 14.1247C18.1895 13.8164 18.3043 13.4538 18.3043 13.083C18.3043 12.5857 18.0982 12.1088 17.7312 11.7572C17.3643 11.4056 16.8667 11.208 16.3478 11.208ZM22.4347 22.0413C22.2625 22.0392 22.0979 21.9726 21.9761 21.8559C21.8542 21.7392 21.7848 21.5814 21.7825 21.4163C21.7825 19.7913 20.8608 18.708 16.3478 18.708C11.8347 18.708 10.913 19.7913 10.913 21.4163C10.913 21.5821 10.8443 21.7411 10.722 21.8583C10.5997 21.9755 10.4338 22.0413 10.2608 22.0413C10.0878 22.0413 9.92196 21.9755 9.79965 21.8583C9.67734 21.7411 9.60863 21.5821 9.60863 21.4163C9.60863 17.458 14.3304 17.458 16.3478 17.458C18.3652 17.458 23.0869 17.458 23.0869 21.4163C23.0846 21.5814 23.0152 21.7392 22.8934 21.8559C22.7716 21.9726 22.607 22.0392 22.4347 22.0413ZM11.4086 16.883H11.1304C10.4385 16.8189 9.80154 16.4941 9.3596 15.9799C8.91767 15.4657 8.70697 14.8044 8.77385 14.1413C8.84073 13.4783 9.17972 12.8679 9.71623 12.4444C10.2527 12.0208 10.9428 11.8189 11.6347 11.883C11.7234 11.8867 11.8104 11.9076 11.8904 11.9447C11.9703 11.9817 12.0416 12.0339 12.0997 12.0983C12.1578 12.1626 12.2016 12.2376 12.2285 12.3187C12.2553 12.3999 12.2645 12.4854 12.2556 12.57C12.2467 12.6547 12.2199 12.7367 12.1767 12.8111C12.1336 12.8855 12.075 12.9506 12.0047 13.0026C11.9344 13.0545 11.8537 13.0921 11.7676 13.1131C11.6816 13.1341 11.592 13.138 11.5043 13.1247C11.3345 13.1085 11.1631 13.1252 11.0003 13.1739C10.8374 13.2225 10.6865 13.3022 10.5565 13.408C10.4244 13.5101 10.3149 13.6364 10.2342 13.7794C10.1536 13.9225 10.1035 14.0795 10.0869 14.2413C10.0689 14.4052 10.0851 14.5708 10.1346 14.7286C10.1841 14.8864 10.2659 15.0331 10.3751 15.1603C10.4844 15.2875 10.6189 15.3926 10.771 15.4695C10.9231 15.5463 11.0896 15.5934 11.2608 15.608C11.5439 15.6312 11.8273 15.567 12.0695 15.4247C12.2171 15.3374 12.3948 15.3098 12.5636 15.3481C12.7324 15.3864 12.8784 15.4874 12.9695 15.6288C13.0606 15.7703 13.0893 15.9406 13.0494 16.1024C13.0094 16.2641 12.9041 16.404 12.7565 16.4913C12.3532 16.7379 11.8869 16.8733 11.4086 16.883ZM6.78254 21.4163C6.61028 21.4142 6.4457 21.3476 6.32388 21.2309C6.20206 21.1142 6.13262 20.9564 6.13037 20.7913C6.13037 18.5413 6.75646 17.0413 9.82602 17.0413C9.99899 17.0413 10.1649 17.1072 10.2872 17.2244C10.4095 17.3416 10.4782 17.5006 10.4782 17.6663C10.4782 17.8321 10.4095 17.9911 10.2872 18.1083C10.1649 18.2255 9.99899 18.2913 9.82602 18.2913C7.78254 18.2913 7.43472 18.9163 7.43472 20.7913C7.43247 20.9564 7.36303 21.1142 7.24121 21.2309C7.11939 21.3476 6.95481 21.4142 6.78254 21.4163Z" fill="black"/>
</g>
<defs>
<clipPath id="clip0_2283_993">
<rect width="24" height="24" fill="white"/>
</clipPath>
</defs>
</svg>
