<svg width="169" height="104" viewBox="0 0 169 104" fill="none" xmlns="http://www.w3.org/2000/svg">
<path fill-rule="evenodd" clip-rule="evenodd" d="M12 0C5.37258 0 0 5.37259 0 12V63C0 69.6274 5.37259 75 12 75H117.394C117.426 75.2568 117.559 75.5057 117.81 75.6834L156.564 103.059C157.332 103.602 158.356 102.881 158.104 101.975L150.612 75H157C163.627 75 169 69.6274 169 63V12C169 5.37258 163.627 0 157 0H12Z" fill="#B3B6FF"/>
<rect x="12" y="33" width="146" height="5" rx="2.5" fill="white"/>
<rect x="12" y="42" width="146" height="5" rx="2.5" fill="white"/>
<rect x="12" y="51" width="146" height="5" rx="2.5" fill="white"/>
<rect x="12" y="12" width="48" height="5" rx="2.5" fill="white"/>
<rect x="64" y="12" width="48" height="5" rx="2.5" fill="white"/>
</svg>
