<svg width="40" height="40" viewBox="0 0 40 40" fill="none" xmlns="http://www.w3.org/2000/svg">
<g id="radix-icons:cross-1">
<path id="Vector" fill-rule="evenodd" clip-rule="evenodd" d="M34.2772 7.61105C34.4012 7.48708 34.4995 7.33991 34.5666 7.17794C34.6337 7.01597 34.6682 6.84237 34.6682 6.66705C34.6682 6.49173 34.6337 6.31813 34.5666 6.15616C34.4995 5.99419 34.4012 5.84702 34.2772 5.72305C34.1533 5.59908 34.0061 5.50074 33.8441 5.43365C33.6821 5.36656 33.5085 5.33203 33.3332 5.33203C33.1579 5.33203 32.9843 5.36656 32.8223 5.43365C32.6604 5.50074 32.5132 5.59908 32.3892 5.72305L19.9999 18.115L7.61056 5.72305C7.48659 5.59908 7.33942 5.50074 7.17745 5.43365C7.01548 5.36656 6.84188 5.33203 6.66656 5.33203C6.49124 5.33203 6.31764 5.36656 6.15567 5.43365C5.9937 5.50074 5.84653 5.59908 5.72256 5.72305C5.59859 5.84702 5.50026 5.99419 5.43317 6.15616C5.36607 6.31813 5.33154 6.49173 5.33154 6.66705C5.33154 6.84237 5.36607 7.01597 5.43317 7.17794C5.50026 7.33991 5.59859 7.48708 5.72256 7.61105L18.1146 20.0004L5.72256 32.3897C5.4722 32.6401 5.33154 32.9796 5.33154 33.3337C5.33154 33.6878 5.4722 34.0274 5.72256 34.2777C5.97292 34.5281 6.31249 34.6687 6.66656 34.6687C7.02063 34.6687 7.3602 34.5281 7.61056 34.2777L19.9999 21.8857L32.3892 34.2777C32.6396 34.5281 32.9792 34.6687 33.3332 34.6687C33.6873 34.6687 34.0269 34.5281 34.2772 34.2777C34.5276 34.0274 34.6682 33.6878 34.6682 33.3337C34.6682 32.9796 34.5276 32.6401 34.2772 32.3897L21.8852 20.0004L34.2772 7.61105Z" fill="#D65C61"/>
</g>
</svg>
