<svg width="14" height="14" viewBox="0 0 14 14" fill="none" xmlns="http://www.w3.org/2000/svg">
<g id="mdi:eye">
<path id="Vector" d="M6.9987 5.25C6.53457 5.25 6.08945 5.43437 5.76126 5.76256C5.43307 6.09075 5.2487 6.53587 5.2487 7C5.2487 7.46413 5.43307 7.90925 5.76126 8.23744C6.08945 8.56563 6.53457 8.75 6.9987 8.75C7.46283 8.75 7.90795 8.56563 8.23613 8.23744C8.56432 7.90925 8.7487 7.46413 8.7487 7C8.7487 6.53587 8.56432 6.09075 8.23613 5.76256C7.90795 5.43437 7.46283 5.25 6.9987 5.25ZM6.9987 9.91667C6.22515 9.91667 5.48328 9.60938 4.9363 9.06239C4.38932 8.51541 4.08203 7.77355 4.08203 7C4.08203 6.22645 4.38932 5.48459 4.9363 4.93761C5.48328 4.39062 6.22515 4.08333 6.9987 4.08333C7.77225 4.08333 8.51411 4.39062 9.06109 4.93761C9.60807 5.48459 9.91536 6.22645 9.91536 7C9.91536 7.77355 9.60807 8.51541 9.06109 9.06239C8.51411 9.60938 7.77225 9.91667 6.9987 9.91667ZM6.9987 2.625C4.08203 2.625 1.5912 4.43917 0.582031 7C1.5912 9.56083 4.08203 11.375 6.9987 11.375C9.91536 11.375 12.4062 9.56083 13.4154 7C12.4062 4.43917 9.91536 2.625 6.9987 2.625Z" fill="#006BFA"/>
</g>
</svg>
